<svg width="531" height="764" viewBox="0 0 531 764" fill="none" xmlns="http://www.w3.org/2000/svg">
<path d="M-81 -23H1778V-25H-81V-23ZM1779 -22V819H1781V-22H1779ZM1778 820H-81V822H1778V820ZM-82 819V-22H-84V819H-82ZM-81 820C-81.5523 820 -82 819.552 -82 819H-84C-84 820.657 -82.6568 822 -81 822V820ZM1779 819C1779 819.552 1778.55 820 1778 820V822C1779.66 822 1781 820.657 1781 819H1779ZM1778 -23C1778.55 -23 1779 -22.5523 1779 -22H1781C1781 -23.6569 1779.66 -25 1778 -25V-23ZM-81 -25C-82.6568 -25 -84 -23.6569 -84 -22H-82C-82 -22.5523 -81.5523 -23 -81 -23V-25Z" fill="white" fill-opacity="0.1"/>
<g clip-path="url(#clip0_26_517)">
<path fill-rule="evenodd" clip-rule="evenodd" d="M162.876 380.5C164.4 380.626 165.933 380.401 167.357 379.84C168.824 379.261 170.134 378.343 171.178 377.161C172.221 375.978 172.969 374.564 173.36 373.036C173.745 371.528 173.771 369.951 173.436 368.432C172.076 361.269 169.53 350.268 165.234 339.327C160.96 328.442 154.807 317.231 146.031 310.064C136.834 302.267 126.248 300.558 117.024 301.265C107.861 301.969 99.8543 305.06 95.3771 307.133C94.1284 307.682 92.9816 308.434 91.9821 309.354C104.052 326.219 122.771 343.296 147.058 355.968C149.025 356.995 149.788 359.422 148.761 361.389C147.734 363.356 145.308 364.119 143.34 363.092C119.536 350.671 100.722 334.141 87.8928 317.337C86.7372 322.209 85.5861 329.387 86.3163 337.112C87.1812 346.261 90.7107 356.329 100.101 364.077C108.783 371.261 121.047 375.252 132.635 377.51C144.241 379.773 155.583 380.372 162.876 380.5Z" fill="url(#paint0_linear_26_517)"/>
</g>
<g clip-path="url(#clip1_26_517)">
<path fill-rule="evenodd" clip-rule="evenodd" d="M88.1583 431.471C89.5965 431.99 91.1356 432.172 92.6564 432.001C94.2238 431.825 95.7273 431.28 97.043 430.41C98.3587 429.54 99.4492 428.37 100.224 426.996C100.989 425.641 101.425 424.125 101.498 422.571C102.05 415.301 102.459 404.017 101.162 392.335C99.8718 380.712 96.8527 368.285 90.2462 359.079C83.3988 349.155 73.6233 344.747 64.5337 343.026C55.5045 341.318 46.9686 342.217 42.106 343.051C40.7573 343.257 39.4543 343.683 38.2496 344.311C45.5084 363.738 59.1317 385.103 79.2777 403.665C80.9095 405.169 81.0136 407.711 79.5099 409.342C78.0063 410.974 75.4645 411.078 73.8326 409.575C54.0863 391.38 40.2289 370.519 32.2215 350.953C29.8365 355.356 26.8549 361.986 25.5473 369.634C23.9987 378.692 24.783 389.332 31.8306 399.26C38.3402 408.458 49.1413 415.506 59.7401 420.705C70.3563 425.913 81.1504 429.448 88.1583 431.471Z" fill="url(#paint1_linear_26_517)"/>
</g>
<g clip-path="url(#clip2_26_517)">
<path fill-rule="evenodd" clip-rule="evenodd" d="M227.327 436.856C228.553 437.771 229.973 438.391 231.478 438.669C233.029 438.956 234.626 438.871 236.137 438.42C237.649 437.97 239.032 437.167 240.172 436.077C241.298 435.002 242.155 433.678 242.676 432.212C245.315 425.416 248.982 414.736 251.132 403.181C253.272 391.684 253.99 378.916 250.341 368.188C246.669 356.704 238.595 349.647 230.396 345.362C222.252 341.107 213.822 339.489 208.927 338.875C207.577 338.68 206.206 338.71 204.871 338.962C206.177 359.659 213.012 384.058 226.901 407.67C228.026 409.582 227.388 412.045 225.475 413.17C223.563 414.295 221.1 413.657 219.975 411.744C206.361 388.601 199.157 364.616 197.174 343.568C193.614 347.088 188.836 352.567 185.364 359.506C181.253 367.725 178.914 378.134 182.776 389.68C186.335 400.372 194.625 410.252 203.258 418.304C211.905 426.37 221.208 432.886 227.327 436.856Z" fill="url(#paint2_linear_26_517)"/>
</g>
<g clip-path="url(#clip3_26_517)">
<path fill-rule="evenodd" clip-rule="evenodd" d="M357.806 444.827C359.332 444.919 360.86 444.66 362.271 444.067C363.725 443.456 365.014 442.509 366.03 441.304C367.047 440.098 367.764 438.668 368.12 437.131C368.471 435.615 368.462 434.038 368.094 432.527C366.574 425.396 363.784 414.454 359.245 403.612C354.73 392.825 348.328 381.754 339.394 374.785C330.026 367.195 319.404 365.721 310.198 366.634C301.054 367.542 293.118 370.811 288.688 372.983C287.452 373.56 286.322 374.337 285.343 375.279C297.786 391.87 316.881 408.526 341.444 420.654C343.434 421.636 344.25 424.046 343.268 426.035C342.285 428.025 339.876 428.842 337.886 427.859C313.811 415.972 294.633 399.866 281.433 383.352C280.386 388.248 279.395 395.45 280.297 403.156C281.366 412.284 285.119 422.271 294.68 429.808C303.52 436.797 315.87 440.513 327.505 442.512C339.159 444.515 350.512 444.862 357.806 444.827Z" fill="url(#paint3_linear_26_517)"/>
</g>
<g clip-path="url(#clip4_26_517)">
<path fill-rule="evenodd" clip-rule="evenodd" d="M458.42 382.282C459.67 383.162 461.106 383.744 462.618 383.981C464.177 384.225 465.771 384.096 467.269 383.604C468.768 383.113 470.129 382.272 471.239 381.152C472.335 380.046 473.155 378.7 473.636 377.22C476.088 370.353 479.461 359.578 481.295 347.968C483.119 336.417 483.488 323.633 479.547 313.01C475.562 301.63 467.298 294.797 458.985 290.738C450.727 286.707 442.257 285.32 437.346 284.841C435.991 284.683 434.622 284.75 433.294 285.038C435.166 305.692 442.665 329.895 457.196 353.118C458.373 354.999 457.802 357.478 455.921 358.655C454.04 359.832 451.561 359.261 450.384 357.38C436.142 334.618 428.284 310.839 425.726 289.853C422.264 293.469 417.637 299.077 414.357 306.108C410.472 314.436 408.419 324.906 412.595 336.342C416.445 346.932 425.002 356.582 433.852 364.395C442.717 372.221 452.195 378.48 458.42 382.282Z" fill="url(#paint4_linear_26_517)"/>
</g>
<g clip-path="url(#clip5_26_517)">
<path fill-rule="evenodd" clip-rule="evenodd" d="M65.8946 304.174C67.0765 305.144 68.4664 305.83 69.9568 306.177C71.4929 306.535 73.0922 306.524 74.6229 306.144C76.1538 305.764 77.5725 305.025 78.7621 303.99C79.936 302.968 80.8535 301.685 81.4414 300.245C84.3922 293.577 88.5484 283.078 91.2305 271.635C93.8989 260.249 95.2068 247.528 92.0569 236.643C88.92 225.001 81.1801 217.579 73.1881 212.92C65.249 208.292 56.9035 206.286 52.0417 205.448C50.702 205.19 49.3312 205.157 47.9859 205.346C48.3347 226.082 54.0342 250.771 66.8178 274.999C67.8533 276.962 67.1018 279.392 65.1392 280.428C63.1766 281.463 60.7462 280.712 59.7107 278.749C47.1807 255.002 41.0923 230.709 40.0846 209.592C36.3654 212.944 31.3393 218.197 27.5509 224.967C23.0639 232.987 20.247 243.278 23.5715 254.989C26.6326 265.834 34.4569 276.087 42.7085 284.53C50.9736 292.987 59.9658 299.925 65.8946 304.174Z" fill="#F18E3F" fill-opacity="0.75"/>
</g>
<g clip-path="url(#clip6_26_517)">
<path fill-rule="evenodd" clip-rule="evenodd" d="M182.418 314.683C183.647 315.592 185.07 316.207 186.576 316.478C188.128 316.758 189.725 316.666 191.235 316.209C192.744 315.752 194.124 314.943 195.26 313.848C196.38 312.768 197.232 311.441 197.746 309.972C200.356 303.164 203.976 292.469 206.076 280.904C208.165 269.398 208.828 256.627 205.132 245.916C201.41 234.447 193.305 227.426 185.088 223.177C176.925 218.957 168.489 217.375 163.591 216.784C162.24 216.594 160.869 216.63 159.535 216.887C160.932 237.579 167.872 261.948 181.865 285.499C182.998 287.407 182.37 289.872 180.463 291.005C178.555 292.139 176.09 291.511 174.956 289.603C161.241 266.52 153.932 242.566 151.858 221.527C148.313 225.063 143.559 230.563 140.118 237.517C136.042 245.753 133.749 256.173 137.662 267.702C141.267 278.378 149.6 288.222 158.268 296.237C166.95 304.264 176.282 310.74 182.418 314.683Z" fill="#F18E3F" fill-opacity="0.75"/>
</g>
<g clip-path="url(#clip7_26_517)">
<path fill-rule="evenodd" clip-rule="evenodd" d="M121.158 230.471C122.596 230.99 124.136 231.172 125.656 231.001C127.224 230.825 128.727 230.28 130.043 229.41C131.359 228.54 132.449 227.37 133.224 225.996C133.989 224.641 134.425 223.125 134.498 221.571C135.05 214.301 135.459 203.017 134.162 191.335C132.872 179.712 129.853 167.285 123.246 158.079C116.399 148.155 106.623 143.747 97.5337 142.026C88.5045 140.318 79.9685 141.217 75.106 142.051C73.7573 142.257 72.4542 142.683 71.2495 143.311C78.5084 162.738 92.1317 184.103 112.278 202.665C113.91 204.169 114.014 206.711 112.51 208.342C111.006 209.974 108.464 210.078 106.833 208.575C87.0862 190.38 73.2289 169.519 65.2214 149.953C62.8364 154.356 59.8549 160.986 58.5473 168.634C56.9987 177.692 57.7829 188.332 64.8306 198.26C71.3402 207.458 82.1413 214.506 92.7401 219.705C103.356 224.913 114.15 228.448 121.158 230.471Z" fill="#F18E3F" fill-opacity="0.75"/>
</g>
<g clip-path="url(#clip8_26_517)">
<path fill-rule="evenodd" clip-rule="evenodd" d="M98.17 125.173C99.6911 125.329 101.228 125.133 102.663 124.599C104.141 124.049 105.468 123.156 106.534 121.994C107.6 120.832 108.375 119.433 108.795 117.912C109.209 116.412 109.265 114.836 108.96 113.31C107.737 106.122 105.403 95.0747 101.318 84.0535C97.2537 73.0884 91.3174 61.7611 82.6797 54.4273C73.6346 46.4552 63.0829 44.5428 53.8471 45.073C44.6729 45.6005 36.608 48.5379 32.0919 50.5241C30.8329 51.0494 29.6718 51.7788 28.6549 52.6798C40.3986 69.7726 58.7866 87.2061 82.8253 100.342C84.7725 101.406 85.4885 103.848 84.4244 105.795C83.3603 107.742 80.9192 108.458 78.9719 107.394C55.41 94.5182 36.9168 77.63 24.4131 60.583C23.1641 65.4315 21.8755 72.5864 22.4572 80.3232C23.1464 89.487 26.4819 99.6213 35.7222 107.548C44.2639 114.898 56.4495 119.123 67.9915 121.604C79.5523 124.088 90.8809 124.906 98.17 125.173Z" fill="#F18E3F" fill-opacity="0.75"/>
</g>
<g clip-path="url(#clip9_26_517)">
<path fill-rule="evenodd" clip-rule="evenodd" d="M216.927 197.262C218.456 197.255 219.964 196.896 221.333 196.213C222.744 195.509 223.969 194.479 224.905 193.21C225.841 191.941 226.462 190.467 226.718 188.91C226.97 187.375 226.858 185.801 226.391 184.317C224.409 177.3 220.911 166.564 215.675 156.041C210.466 145.572 203.356 134.941 193.986 128.57C184.143 121.607 173.448 120.83 164.321 122.341C155.255 123.843 147.549 127.623 143.271 130.079C142.075 130.736 140.998 131.585 140.083 132.589C153.581 148.333 173.722 163.708 199.024 174.208C201.073 175.059 202.045 177.41 201.195 179.459C200.344 181.509 197.993 182.481 195.944 181.63C171.144 171.338 150.957 156.517 136.707 140.899C135.982 145.853 135.463 153.105 136.866 160.736C138.528 169.774 142.924 179.495 152.957 186.392C162.233 192.79 174.8 195.693 186.54 196.929C198.3 198.168 209.651 197.773 216.927 197.262Z" fill="#F18E3F" fill-opacity="0.75"/>
</g>
<g clip-path="url(#clip10_26_517)">
<path fill-rule="evenodd" clip-rule="evenodd" d="M175.047 108.959C176.311 109.82 177.756 110.379 179.272 110.593C180.833 110.813 182.425 110.66 183.916 110.145C185.407 109.63 186.755 108.769 187.848 107.632C188.926 106.509 189.726 105.15 190.184 103.663C192.53 96.7598 195.737 85.9334 197.392 74.2965C199.038 62.719 199.21 49.9315 195.105 39.37C190.946 28.0532 182.578 21.348 174.203 17.4173C165.884 13.5135 157.394 12.2572 152.477 11.8539C151.119 11.7164 149.751 11.8052 148.428 12.1133C150.618 32.7357 158.489 56.8208 173.374 79.8172C174.58 81.68 174.048 84.1676 172.185 85.3734C170.322 86.5792 167.835 86.0466 166.629 84.1838C152.038 61.6436 143.815 37.9879 140.935 17.044C137.528 20.7133 132.989 26.3918 129.817 33.4725C126.06 41.8593 124.169 52.3594 128.521 63.7294C132.534 74.2593 141.238 83.7764 150.208 91.4526C159.191 99.1413 168.765 105.253 175.047 108.959Z" fill="#F18E3F" fill-opacity="0.75"/>
</g>
<g clip-path="url(#clip11_26_517)">
<path fill-rule="evenodd" clip-rule="evenodd" d="M275.526 346.592C276.84 347.375 278.316 347.845 279.842 347.966C281.414 348.09 282.994 347.84 284.451 347.236C285.908 346.631 287.2 345.689 288.222 344.488C289.23 343.302 289.945 341.896 290.312 340.384C292.233 333.351 294.775 322.349 295.718 310.633C296.656 298.977 296.049 286.203 291.308 275.911C286.468 264.868 277.706 258.685 269.108 255.272C260.567 251.882 252.015 251.145 247.083 251.042C245.719 250.988 244.359 251.16 243.057 251.548C246.499 271.999 255.822 295.56 272.081 317.606C273.398 319.392 273.018 321.908 271.232 323.225C269.446 324.542 266.931 324.162 265.614 322.376C249.678 300.766 240.029 277.655 235.878 256.926C232.702 260.796 228.516 266.74 225.782 274.001C222.543 282.601 221.295 293.197 226.331 304.281C230.978 314.547 240.246 323.516 249.666 330.631C259.101 337.759 269.029 343.276 275.526 346.592Z" fill="#F18E3F" fill-opacity="0.75"/>
</g>
<g clip-path="url(#clip12_26_517)">
<path fill-rule="evenodd" clip-rule="evenodd" d="M300.158 253.471C301.596 253.99 303.136 254.172 304.656 254.001C306.224 253.825 307.727 253.28 309.043 252.41C310.359 251.54 311.449 250.37 312.224 248.996C312.989 247.641 313.425 246.125 313.498 244.571C314.05 237.301 314.459 226.017 313.162 214.335C311.872 202.712 308.853 190.285 302.246 181.079C295.399 171.155 285.623 166.747 276.534 165.026C267.505 163.318 258.969 164.217 254.106 165.051C252.757 165.257 251.454 165.683 250.25 166.311C257.508 185.738 271.132 207.103 291.278 225.665C292.91 227.169 293.014 229.711 291.51 231.342C290.006 232.974 287.464 233.078 285.833 231.575C266.086 213.38 252.229 192.519 244.221 172.953C241.836 177.356 238.855 183.986 237.547 191.634C235.999 200.692 236.783 211.332 243.831 221.26C250.34 230.458 261.141 237.506 271.74 242.705C282.356 247.913 293.15 251.448 300.158 253.471Z" fill="#F18E3F" fill-opacity="0.75"/>
</g>
<g clip-path="url(#clip13_26_517)">
<path fill-rule="evenodd" clip-rule="evenodd" d="M376.158 650.471C377.596 650.99 379.136 651.172 380.656 651.001C382.224 650.825 383.727 650.28 385.043 649.41C386.359 648.54 387.449 647.37 388.224 645.996C388.989 644.641 389.425 643.125 389.498 641.571C390.05 634.301 390.459 623.017 389.162 611.335C387.872 599.712 384.853 587.285 378.246 578.079C371.399 568.155 361.623 563.747 352.534 562.026C343.505 560.318 334.969 561.217 330.106 562.051C328.757 562.257 327.454 562.683 326.25 563.311C333.508 582.738 347.132 604.103 367.278 622.665C368.91 624.169 369.014 626.711 367.51 628.342C366.006 629.974 363.464 630.078 361.833 628.575C342.086 610.38 328.229 589.519 320.221 569.953C317.836 574.356 314.855 580.986 313.547 588.634C311.999 597.692 312.783 608.332 319.831 618.26C326.34 627.458 337.141 634.506 347.74 639.705C358.356 644.913 369.15 648.448 376.158 650.471Z" fill="#FFC500" fill-opacity="0.75"/>
</g>
<g clip-path="url(#clip14_26_517)">
<path fill-rule="evenodd" clip-rule="evenodd" d="M195.299 744.163C196.399 745.225 197.729 746.021 199.187 746.487C200.689 746.968 202.284 747.085 203.84 746.83C205.397 746.574 206.87 745.953 208.14 745.016C209.392 744.092 210.41 742.888 211.112 741.499C214.591 735.091 219.58 724.962 223.175 713.772C226.753 702.638 229.082 690.064 226.82 678.961C224.631 667.104 217.515 659.082 209.924 653.794C202.384 648.541 194.228 645.869 189.449 644.641C188.135 644.277 186.771 644.133 185.415 644.213C184.091 664.909 187.782 689.978 198.571 715.157C199.445 717.197 198.5 719.559 196.46 720.433C194.421 721.307 192.059 720.362 191.185 718.322C180.61 693.642 176.499 668.938 177.197 647.808C173.22 650.849 167.786 655.68 163.465 662.123C158.346 669.755 154.709 679.785 157.078 691.727C159.255 702.783 166.228 713.633 173.772 722.714C181.328 731.809 189.732 739.45 195.299 744.163Z" fill="#FFC500" fill-opacity="0.75"/>
</g>
<g clip-path="url(#clip15_26_517)">
<path fill-rule="evenodd" clip-rule="evenodd" d="M223.886 574.755C224.475 576.166 225.381 577.423 226.535 578.429C227.724 579.465 229.142 580.205 230.672 580.587C232.202 580.969 233.802 580.982 235.338 580.625C236.854 580.272 238.266 579.569 239.46 578.573C245.193 574.067 253.786 566.742 261.52 557.891C269.215 549.085 276.334 538.462 278.655 527.371C281.342 515.617 277.985 505.432 273.11 497.57C268.267 489.761 261.836 484.076 257.935 481.056C256.872 480.201 255.677 479.529 254.4 479.065C244.987 497.544 238.446 522.024 238.379 549.418C238.374 551.637 236.57 553.431 234.351 553.426C232.132 553.42 230.338 551.617 230.343 549.398C230.409 522.548 236.42 498.236 245.43 479.111C240.574 480.328 233.672 482.611 227.151 486.816C219.428 491.796 212.115 499.565 209.561 511.468C207.181 522.483 209.285 535.207 212.615 546.533C215.951 557.878 220.641 568.222 223.886 574.755Z" fill="#FFC500" fill-opacity="0.75"/>
</g>
<g clip-path="url(#clip16_26_517)">
<path fill-rule="evenodd" clip-rule="evenodd" d="M96.1133 549.558C96.518 551.033 97.2567 552.395 98.2728 553.54C99.32 554.719 100.632 555.634 102.101 556.207C103.571 556.781 105.155 556.998 106.725 556.839C108.273 556.683 109.763 556.165 111.075 555.329C117.334 551.59 126.79 545.419 135.589 537.626C144.343 529.872 152.757 520.242 156.472 509.537C160.634 498.221 158.602 487.692 154.768 479.272C150.959 470.91 145.305 464.452 141.82 460.96C140.875 459.976 139.775 459.157 138.567 458.535C126.877 475.664 117.272 499.112 113.716 526.274C113.428 528.474 111.411 530.024 109.21 529.736C107.01 529.448 105.46 527.431 105.748 525.231C109.233 498.608 118.292 475.259 129.665 457.438C124.693 458.026 117.556 459.412 110.553 462.752C102.259 466.708 94.016 473.482 89.9664 484.963C86.2023 495.584 86.6688 508.473 88.5294 520.131C90.393 531.808 93.7269 542.666 96.1133 549.558Z" fill="#FFC500" fill-opacity="0.75"/>
</g>
<defs>
<linearGradient id="paint0_linear_26_517" x1="139.178" y1="387.509" x2="115.727" y2="300.61" gradientUnits="userSpaceOnUse">
<stop offset="0.205" stop-color="#FFC500" stop-opacity="0.6"/>
<stop offset="1" stop-color="#F18E3F"/>
</linearGradient>
<linearGradient id="paint1_linear_26_517" x1="63.4521" y1="432.063" x2="63.4521" y2="342.056" gradientUnits="userSpaceOnUse">
<stop offset="0.205" stop-color="#FFC500" stop-opacity="0.6"/>
<stop offset="1" stop-color="#F18E3F"/>
</linearGradient>
<linearGradient id="paint2_linear_26_517" x1="203.513" y1="430.251" x2="229.643" y2="344.12" gradientUnits="userSpaceOnUse">
<stop offset="0.205" stop-color="#FFC500" stop-opacity="0.6"/>
<stop offset="1" stop-color="#F18E3F"/>
</linearGradient>
<linearGradient id="paint3_linear_26_517" x1="334.269" y1="452.362" x2="308.887" y2="366.008" gradientUnits="userSpaceOnUse">
<stop offset="0.205" stop-color="#FFC500" stop-opacity="0.6"/>
<stop offset="1" stop-color="#F18E3F"/>
</linearGradient>
<linearGradient id="paint4_linear_26_517" x1="434.434" y1="376.33" x2="458.198" y2="289.516" gradientUnits="userSpaceOnUse">
<stop offset="0.205" stop-color="#FFC500" stop-opacity="0.6"/>
<stop offset="1" stop-color="#F18E3F"/>
</linearGradient>
<clipPath id="clip0_26_517">
<rect width="90" height="90" fill="white" transform="translate(182.622 375.781) rotate(164.898)"/>
</clipPath>
<clipPath id="clip1_26_517">
<rect width="90" height="90" fill="white" transform="matrix(-1 0 0 -1 108.452 432.059)"/>
</clipPath>
<clipPath id="clip2_26_517">
<rect width="90" height="90" fill="white" transform="translate(246.576 443.311) rotate(-163.124)"/>
</clipPath>
<clipPath id="clip3_26_517">
<rect width="90" height="90" fill="white" transform="translate(377.442 439.669) rotate(163.62)"/>
</clipPath>
<clipPath id="clip4_26_517">
<rect width="90" height="90" fill="white" transform="translate(477.838 388.208) rotate(-164.691)"/>
</clipPath>
<clipPath id="clip5_26_517">
<rect width="90" height="90" fill="white" transform="translate(84.8246 311.511) rotate(-160.475)"/>
</clipPath>
<clipPath id="clip6_26_517">
<rect width="90" height="90" fill="white" transform="translate(201.695 321.054) rotate(-163.374)"/>
</clipPath>
<clipPath id="clip7_26_517">
<rect width="90" height="90" fill="white" transform="matrix(-1 0 0 -1 141.452 231.059)"/>
</clipPath>
<clipPath id="clip8_26_517">
<rect width="90" height="90" fill="white" transform="translate(118.003 120.834) rotate(165.997)"/>
</clipPath>
<clipPath id="clip9_26_517">
<rect width="90" height="90" fill="white" transform="translate(236.185 190.834) rotate(159.88)"/>
</clipPath>
<clipPath id="clip10_26_517">
<rect width="90" height="90" fill="white" transform="translate(194.555 114.585) rotate(-165.573)"/>
</clipPath>
<clipPath id="clip11_26_517">
<rect width="90" height="90" fill="white" transform="translate(295.34 351.02) rotate(-169.065)"/>
</clipPath>
<clipPath id="clip12_26_517">
<rect width="90" height="90" fill="white" transform="matrix(-1 0 0 -1 320.452 254.059)"/>
</clipPath>
<clipPath id="clip13_26_517">
<rect width="90" height="90" fill="white" transform="matrix(-1 0 0 -1 396.452 651.059)"/>
</clipPath>
<clipPath id="clip14_26_517">
<rect width="90" height="90" fill="white" transform="translate(213.576 753.002) rotate(-155.852)"/>
</clipPath>
<clipPath id="clip15_26_517">
<rect width="90" height="90" fill="white" transform="translate(237.167 590.111) rotate(-132.517)"/>
</clipPath>
<clipPath id="clip16_26_517">
<rect width="90" height="90" fill="white" transform="translate(107.33 566.481) rotate(-125.199)"/>
</clipPath>
</defs>
</svg>
