<svg width="417" height="607" viewBox="0 0 417 607" fill="none" xmlns="http://www.w3.org/2000/svg">
<path d="M-804 -95H1891V-97H-804V-95ZM1892 -94V747H1894V-94H1892ZM1891 748H-804V750H1891V748ZM-805 747V-94H-807V747H-805ZM-804 748C-804.552 748 -805 747.552 -805 747H-807C-807 748.657 -805.657 750 -804 750V748ZM1892 747C1892 747.552 1891.55 748 1891 748V750C1892.66 750 1894 748.657 1894 747H1892ZM1891 -95C1891.55 -95 1892 -94.5523 1892 -94H1894C1894 -95.6568 1892.66 -97 1891 -97V-95ZM-804 -97C-805.657 -97 -807 -95.6569 -807 -94H-805C-805 -94.5523 -804.552 -95 -804 -95V-97Z" fill="white" fill-opacity="0.1"/>
<g clip-path="url(#clip0_26_517)">
<path fill-rule="evenodd" clip-rule="evenodd" d="M70.927 438.074C69.8316 438.518 68.6105 438.687 67.3583 438.565C66.0678 438.439 64.7809 438.009 63.6036 437.31C62.4262 436.611 61.3921 435.663 60.5863 434.543C59.7913 433.438 59.2413 432.197 58.9802 430.92C57.5865 424.95 55.7869 415.678 55.3144 406.058C54.8444 396.486 55.6678 386.233 59.812 378.584C64.0574 370.341 71.389 366.597 78.516 365.072C85.5957 363.557 92.616 364.192 96.6571 364.819C97.7746 364.971 98.884 365.306 99.94 365.807C96.5992 381.867 88.3637 399.598 74.4883 415.105C73.3643 416.361 73.6112 418.452 75.0397 419.776C76.4683 421.099 78.5374 421.153 79.6614 419.897C93.2616 404.698 101.752 387.378 105.68 371.194C108.182 374.784 111.457 380.199 113.51 386.471C115.942 393.899 116.693 402.656 112.286 410.904C108.22 418.545 100.402 424.472 92.5077 428.876C84.6003 433.288 76.3311 436.325 70.927 438.074Z" fill="#FFC500" fill-opacity="0.75"/>
</g>
<g clip-path="url(#clip1_26_517)">
<path fill-rule="evenodd" clip-rule="evenodd" d="M327.077 294.2C326.007 294.985 324.774 295.555 323.473 295.864C322.132 296.183 320.757 296.217 319.461 295.963C318.165 295.709 316.985 295.174 316.018 294.402C315.064 293.64 314.345 292.668 313.918 291.566C311.744 286.468 308.743 278.427 307.062 269.614C305.39 260.845 304.961 251.002 308.266 242.467C311.601 233.343 318.666 227.373 325.796 223.541C332.878 219.735 340.167 217.954 344.395 217.173C345.562 216.937 346.743 216.875 347.89 216.985C346.455 233.095 340.202 252.418 327.879 271.572C326.881 273.124 327.394 274.991 329.026 275.742C330.658 276.493 332.79 275.845 333.788 274.293C345.866 255.519 352.433 236.493 354.455 220.07C357.471 222.573 361.507 226.517 364.396 231.673C367.817 237.779 369.677 245.694 366.176 254.877C362.95 263.379 355.658 271.55 348.098 278.326C340.525 285.114 332.41 290.742 327.077 294.2Z" fill="url(#paint0_linear_26_517)"/>
</g>
<g clip-path="url(#clip2_26_517)">
<path fill-rule="evenodd" clip-rule="evenodd" d="M199.865 407.936C198.69 408.437 197.387 408.688 196.057 408.668C194.685 408.648 193.324 408.341 192.085 407.772C190.845 407.203 189.763 406.389 188.928 405.397C188.104 404.417 187.543 403.292 187.29 402.11C185.926 396.599 184.195 388.012 183.884 378.997C183.575 370.028 184.656 360.319 189.22 352.809C193.904 344.733 201.783 340.656 209.4 338.681C216.967 336.72 224.428 336.786 228.717 337.07C229.903 337.128 231.078 337.359 232.192 337.751C228.315 353.114 219.195 370.418 204.115 386.058C202.893 387.325 203.114 389.273 204.609 390.41C206.103 391.547 208.304 391.441 209.526 390.174C224.307 374.845 233.691 357.908 238.195 342.385C240.787 345.573 244.165 350.42 246.225 356.164C248.666 362.969 249.291 371.151 244.435 379.244C239.954 386.741 231.514 392.908 223.022 397.649C214.517 402.398 205.653 405.882 199.865 407.936Z" fill="url(#paint1_linear_26_517)"/>
</g>
<g clip-path="url(#clip3_26_517)">
<path fill-rule="evenodd" clip-rule="evenodd" d="M172.194 327.301C171.663 328.55 170.894 329.682 169.948 330.61C168.973 331.566 167.835 332.277 166.63 332.684C165.425 333.092 164.186 333.184 163.016 332.953C161.86 332.725 160.805 332.189 159.932 331.389C155.733 327.785 149.467 321.889 143.948 314.632C138.456 307.411 133.506 298.59 132.297 289.122C130.839 279.1 133.978 270.129 138.169 263.087C142.332 256.092 147.613 250.854 150.793 248.047C151.661 247.253 152.622 246.612 153.636 246.147C159.945 261.641 163.713 282.466 162.314 306.137C162.201 308.055 163.502 309.514 165.22 309.397C166.939 309.28 168.423 307.631 168.537 305.713C169.908 282.512 166.541 261.805 160.578 245.732C164.274 246.538 169.497 248.162 174.323 251.466C180.039 255.379 185.29 261.723 186.637 271.881C187.897 281.279 185.593 292.383 182.415 302.34C179.231 312.313 175.052 321.491 172.194 327.301Z" fill="url(#paint2_linear_26_517)"/>
</g>
<g clip-path="url(#clip4_26_517)">
<path fill-rule="evenodd" clip-rule="evenodd" d="M202.659 215.941C201.481 216.437 200.177 216.683 198.846 216.658C197.475 216.633 196.114 216.32 194.878 215.747C193.641 215.174 192.563 214.356 191.732 213.36C190.912 212.378 190.357 211.25 190.11 210.068C188.773 204.552 187.084 195.961 186.818 186.946C186.553 177.978 187.682 168.275 192.284 160.784C197.009 152.728 204.91 148.682 212.538 146.737C220.116 144.806 227.578 144.9 231.867 145.201C233.053 145.264 234.227 145.499 235.339 145.896C231.386 161.239 222.178 178.506 207.017 194.083C205.789 195.345 206.001 197.294 207.49 198.437C208.979 199.579 211.181 199.482 212.409 198.22C227.269 182.951 236.738 166.054 241.32 150.551C243.897 153.749 247.252 158.607 249.284 164.359C251.692 171.171 252.276 179.354 247.38 187.426C242.86 194.904 234.388 201.038 225.871 205.746C217.34 210.461 208.458 213.909 202.659 215.941Z" fill="#F18E3F" fill-opacity="0.75"/>
</g>
<g clip-path="url(#clip5_26_517)">
<path fill-rule="evenodd" clip-rule="evenodd" d="M321.978 185.376C320.715 185.821 319.376 186.009 318.064 185.924C316.711 185.837 315.427 185.464 314.315 184.834C313.203 184.205 312.297 183.337 311.67 182.303C311.051 181.282 310.722 180.128 310.71 178.933C310.466 173.348 310.478 164.666 311.979 155.625C313.473 146.63 316.491 136.962 322.513 129.664C328.766 121.806 337.377 118.106 345.307 116.499C353.184 114.903 360.55 115.332 364.735 115.824C365.897 115.94 367.012 116.229 368.035 116.675C361.118 131.868 348.624 148.751 330.571 163.677C329.109 164.886 328.936 166.848 330.186 168.059C331.436 169.27 333.634 169.271 335.097 168.062C352.792 153.432 365.472 136.93 373.042 121.606C374.966 124.924 377.334 129.941 378.219 135.793C379.268 142.724 378.244 150.946 371.817 158.813C365.88 166.102 356.295 171.867 346.945 176.202C337.579 180.543 328.114 183.601 321.978 185.376Z" fill="#F18E3F" fill-opacity="0.75"/>
</g>
<g clip-path="url(#clip6_26_517)">
<path fill-rule="evenodd" clip-rule="evenodd" d="M180.927 112.59C179.912 113.306 178.713 113.799 177.421 114.03C176.09 114.269 174.699 114.222 173.363 113.895C172.026 113.567 170.782 112.968 169.734 112.146C168.699 111.335 167.884 110.33 167.354 109.212C164.698 104.03 160.943 95.8832 158.457 87.0462C155.984 78.2541 154.676 68.4697 157.27 60.1986C159.842 51.3466 166.474 45.8379 173.362 42.4535C180.205 39.0922 187.436 37.7505 191.653 37.2218C192.814 37.0559 194.006 37.0627 195.179 37.2395C195.153 53.1293 190.527 71.9246 179.734 90.1999C178.859 91.6802 179.545 93.5613 181.266 94.4014C182.987 95.2415 185.09 94.7224 185.965 93.2421C196.544 75.3293 201.513 56.8471 202.107 40.6802C205.386 43.3377 209.828 47.4831 213.213 52.7635C217.223 59.0178 219.811 66.9738 217.076 75.8751C214.559 84.1179 207.892 91.7949 200.828 98.074C193.754 104.363 186.026 109.472 180.927 112.59Z" fill="#F18E3F" fill-opacity="0.75"/>
</g>
<g clip-path="url(#clip7_26_517)">
<path fill-rule="evenodd" clip-rule="evenodd" d="M82.2209 233.849C80.9157 234.021 79.5685 233.923 78.284 233.564C76.9602 233.193 75.7404 232.554 74.7252 231.7C73.71 230.846 72.9284 229.801 72.4449 228.65C71.9679 227.514 71.7947 226.309 71.939 225.129C72.4312 219.579 73.5814 211.033 76.2503 202.447C78.9056 193.905 83.154 185.021 90.0574 179.105C97.2633 172.686 106.252 170.858 114.294 170.947C122.282 171.036 129.5 173.01 133.569 174.377C134.701 174.736 135.764 175.256 136.716 175.911C127.892 189.412 113.34 203.403 93.5536 214.295C91.9509 215.177 91.5233 217.072 92.5986 218.528C93.674 219.983 95.8449 220.448 97.4477 219.566C116.841 208.89 131.528 195.314 141.014 181.822C142.478 185.494 144.159 190.933 144.265 196.881C144.391 203.927 142.301 211.808 134.923 218.199C128.104 224.125 117.882 227.781 108.08 230.078C98.262 232.379 88.5137 233.394 82.2209 233.849Z" fill="#F18E3F" fill-opacity="0.75"/>
</g>
<g clip-path="url(#clip8_26_517)">
<path fill-rule="evenodd" clip-rule="evenodd" d="M114.372 564.942C113.162 565.473 111.839 565.758 110.504 565.774C109.129 565.79 107.781 565.52 106.572 564.986C105.362 564.451 104.326 563.668 103.548 562.7C102.781 561.745 102.287 560.636 102.105 559.464C101.073 554.001 99.8604 545.479 100.099 536.493C100.337 527.552 102.016 517.835 107.057 510.22C112.253 502.036 120.412 497.758 128.179 495.584C135.895 493.425 143.38 493.292 147.668 493.46C148.856 493.487 150.02 493.686 151.115 494.047C146.284 509.479 136.07 526.99 119.976 542.998C118.672 544.294 118.775 546.233 120.205 547.327C121.636 548.421 123.852 548.257 125.156 546.961C140.931 531.271 151.387 514.12 156.857 498.511C159.264 501.623 162.359 506.368 164.076 512.045C166.11 518.769 166.237 526.917 160.868 535.122C155.911 542.722 147.061 549.101 138.247 554.059C129.418 559.024 120.308 562.737 114.372 564.942Z" fill="#FFC500" fill-opacity="0.75"/>
</g>
<g clip-path="url(#clip9_26_517)">
<path fill-rule="evenodd" clip-rule="evenodd" d="M240.379 520.169C239.292 520.8 238.043 521.196 236.728 521.325C235.373 521.458 233.986 521.303 232.682 520.875C231.378 520.446 230.194 519.754 229.228 518.857C228.274 517.972 227.56 516.912 227.141 515.761C225.003 510.414 222.063 502.04 220.461 493.079C218.867 484.165 218.538 474.356 221.96 466.353C225.418 457.772 232.602 452.823 239.83 450.001C247.01 447.199 254.377 446.431 258.647 446.235C259.826 446.161 261.017 446.26 262.172 446.527C260.557 462.288 254.049 480.574 241.425 497.864C240.403 499.264 240.901 501.184 242.538 502.151C244.174 503.118 246.33 502.767 247.353 501.367C259.726 484.42 266.546 466.471 268.758 450.479C271.772 453.371 275.799 457.829 278.657 463.331C282.041 469.847 283.833 477.941 280.207 486.559C276.865 494.54 269.429 501.637 261.736 507.317C254.031 513.006 245.791 517.472 240.379 520.169Z" fill="#FFC500" fill-opacity="0.75"/>
</g>
<g clip-path="url(#clip10_26_517)">
<path fill-rule="evenodd" clip-rule="evenodd" d="M294.21 398.988C293.159 399.495 291.97 399.727 290.738 399.666C289.467 399.603 288.185 399.229 286.998 398.576C285.81 397.923 284.751 397.009 283.907 395.909C283.074 394.824 282.475 393.588 282.157 392.301C280.501 386.292 278.287 376.942 277.357 367.171C276.431 357.45 276.74 346.97 280.429 338.975C284.188 330.371 291.19 326.193 298.099 324.284C304.962 322.389 311.872 322.684 315.862 323.121C316.964 323.22 318.067 323.505 319.126 323.963C316.633 340.481 309.426 358.945 296.584 375.425C295.544 376.76 295.887 378.877 297.351 380.153C298.815 381.429 300.845 381.381 301.885 380.046C314.473 363.892 321.95 345.834 325.012 329.161C327.638 332.692 331.11 338.041 333.427 344.323C336.171 351.765 337.332 360.643 333.415 369.26C329.802 377.243 322.43 383.668 314.909 388.546C307.375 393.432 299.42 396.938 294.21 398.988Z" fill="#FFC500" fill-opacity="0.75"/>
</g>
<defs>
<linearGradient id="paint0_linear_26_517" x1="347.7" y1="287.593" x2="325.471" y2="222.872" gradientUnits="userSpaceOnUse">
<stop offset="0.205" stop-color="#FFC500" stop-opacity="0.6"/>
<stop offset="1" stop-color="#F18E3F"/>
</linearGradient>
<linearGradient id="paint1_linear_26_517" x1="221.214" y1="406.592" x2="215.374" y2="337.426" gradientUnits="userSpaceOnUse">
<stop offset="0.205" stop-color="#FFC500" stop-opacity="0.6"/>
<stop offset="1" stop-color="#F18E3F"/>
</linearGradient>
<linearGradient id="paint2_linear_26_517" x1="186.403" y1="311.041" x2="133.887" y2="267.047" gradientUnits="userSpaceOnUse">
<stop offset="0.205" stop-color="#FFC500" stop-opacity="0.6"/>
<stop offset="1" stop-color="#F18E3F"/>
</linearGradient>
<clipPath id="clip0_26_517">
<rect width="72.7937" height="74.9146" fill="white" transform="matrix(0.999886 -0.0151031 -0.156437 -0.987688 54.5916 438.806)"/>
</clipPath>
<clipPath id="clip1_26_517">
<rect width="78.8943" height="68.4342" fill="white" transform="matrix(0.945769 -0.324839 -0.310297 -0.95064 310.391 300.404)"/>
</clipPath>
<clipPath id="clip2_26_517">
<rect width="77.7796" height="69.5998" fill="white" transform="matrix(0.996455 -0.0841336 -0.158044 -0.987432 182.461 409.861)"/>
</clipPath>
<clipPath id="clip3_26_517">
<rect width="78.8064" height="68.8397" fill="white" transform="matrix(0.642171 -0.766562 -0.699324 -0.714804 161.097 341.244)"/>
</clipPath>
<clipPath id="clip4_26_517">
<rect width="77.802" height="69.5747" fill="white" transform="matrix(0.996774 -0.0802561 -0.153241 -0.988189 185.242 217.799)"/>
</clipPath>
<clipPath id="clip5_26_517">
<rect width="78.0168" height="69.4054" fill="white" transform="matrix(0.999362 -0.0357278 0.0419837 -0.999118 304.378 186.458)"/>
</clipPath>
<clipPath id="clip6_26_517">
<rect width="76.3325" height="71.1839" fill="white" transform="matrix(0.961158 -0.275998 -0.383448 -0.923563 164.562 117.771)"/>
</clipPath>
<clipPath id="clip7_26_517">
<rect width="78.5612" height="68.7163" fill="white" transform="matrix(0.984702 0.17425 0.17425 -0.984702 64.6991 231.205)"/>
</clipPath>
<clipPath id="clip8_26_517">
<rect width="78.6726" height="68.6223" fill="white" transform="matrix(0.994008 -0.109307 -0.0996636 -0.995021 96.7838 567.327)"/>
</clipPath>
<clipPath id="clip9_26_517">
<rect width="77.0013" height="70.4599" fill="white" transform="matrix(0.980348 -0.197274 -0.294092 -0.955777 223.492 524.034)"/>
</clipPath>
<clipPath id="clip10_26_517">
<rect width="71.4218" height="76.2532" fill="white" transform="matrix(0.997782 -0.0665608 -0.197743 -0.980254 278.24 400.549)"/>
</clipPath>
</defs>
</svg>
